<svg xmlns="http://www.w3.org/2000/svg" xmlns:xlink="http://www.w3.org/1999/xlink" id="visual" width="960" height="300" version="1.1" viewBox="0 0 960 300"><rect width="960" height="300" x="0" y="0" fill="#93C5FD"/><path fill="#93c5fd" d="M0 65L17.8 69.7C35.7 74.3 71.3 83.7 106.8 90.7C142.3 97.7 177.7 102.3 213.2 101.5C248.7 100.7 284.3 94.3 320 98.3C355.7 102.3 391.3 116.7 426.8 119.5C462.3 122.3 497.7 113.7 533.2 111.5C568.7 109.3 604.3 113.7 640 117.2C675.7 120.7 711.3 123.3 746.8 126.3C782.3 129.3 817.7 132.7 853.2 125.3C888.7 118 924.3 100 942.2 91L960 82L960 301L942.2 301C924.3 301 888.7 301 853.2 301C817.7 301 782.3 301 746.8 301C711.3 301 675.7 301 640 301C604.3 301 568.7 301 533.2 301C497.7 301 462.3 301 426.8 301C391.3 301 355.7 301 320 301C284.3 301 248.7 301 213.2 301C177.7 301 142.3 301 106.8 301C71.3 301 35.7 301 17.8 301L0 301Z"/><path fill="#7ab5fd" d="M0 138L17.8 140.3C35.7 142.7 71.3 147.3 106.8 150C142.3 152.7 177.7 153.3 213.2 148.5C248.7 143.7 284.3 133.3 320 134.2C355.7 135 391.3 147 426.8 151.2C462.3 155.3 497.7 151.7 533.2 143.3C568.7 135 604.3 122 640 124C675.7 126 711.3 143 746.8 142.8C782.3 142.7 817.7 125.3 853.2 123.8C888.7 122.3 924.3 136.7 942.2 143.8L960 151L960 301L942.2 301C924.3 301 888.7 301 853.2 301C817.7 301 782.3 301 746.8 301C711.3 301 675.7 301 640 301C604.3 301 568.7 301 533.2 301C497.7 301 462.3 301 426.8 301C391.3 301 355.7 301 320 301C284.3 301 248.7 301 213.2 301C177.7 301 142.3 301 106.8 301C71.3 301 35.7 301 17.8 301L0 301Z"/><path fill="#63a5fc" d="M0 192L17.8 186C35.7 180 71.3 168 106.8 163C142.3 158 177.7 160 213.2 166C248.7 172 284.3 182 320 185.8C355.7 189.7 391.3 187.3 426.8 186.8C462.3 186.3 497.7 187.7 533.2 188.5C568.7 189.3 604.3 189.7 640 184.7C675.7 179.7 711.3 169.3 746.8 166.5C782.3 163.7 817.7 168.3 853.2 174.5C888.7 180.7 924.3 188.3 942.2 192.2L960 196L960 301L942.2 301C924.3 301 888.7 301 853.2 301C817.7 301 782.3 301 746.8 301C711.3 301 675.7 301 640 301C604.3 301 568.7 301 533.2 301C497.7 301 462.3 301 426.8 301C391.3 301 355.7 301 320 301C284.3 301 248.7 301 213.2 301C177.7 301 142.3 301 106.8 301C71.3 301 35.7 301 17.8 301L0 301Z"/><path fill="#4d94fa" d="M0 203L17.8 204.3C35.7 205.7 71.3 208.3 106.8 214.3C142.3 220.3 177.7 229.7 213.2 233C248.7 236.3 284.3 233.7 320 233.2C355.7 232.7 391.3 234.3 426.8 234.7C462.3 235 497.7 234 533.2 230.3C568.7 226.7 604.3 220.3 640 219.8C675.7 219.3 711.3 224.7 746.8 220.7C782.3 216.7 817.7 203.3 853.2 197.2C888.7 191 924.3 192 942.2 192.5L960 193L960 301L942.2 301C924.3 301 888.7 301 853.2 301C817.7 301 782.3 301 746.8 301C711.3 301 675.7 301 640 301C604.3 301 568.7 301 533.2 301C497.7 301 462.3 301 426.8 301C391.3 301 355.7 301 320 301C284.3 301 248.7 301 213.2 301C177.7 301 142.3 301 106.8 301C71.3 301 35.7 301 17.8 301L0 301Z"/><path fill="#3b82f6" d="M0 257L17.8 260C35.7 263 71.3 269 106.8 269C142.3 269 177.7 263 213.2 262.3C248.7 261.7 284.3 266.3 320 262.7C355.7 259 391.3 247 426.8 243.5C462.3 240 497.7 245 533.2 251.5C568.7 258 604.3 266 640 267.3C675.7 268.7 711.3 263.3 746.8 256.7C782.3 250 817.7 242 853.2 240.8C888.7 239.7 924.3 245.3 942.2 248.2L960 251L960 301L942.2 301C924.3 301 888.7 301 853.2 301C817.7 301 782.3 301 746.8 301C711.3 301 675.7 301 640 301C604.3 301 568.7 301 533.2 301C497.7 301 462.3 301 426.8 301C391.3 301 355.7 301 320 301C284.3 301 248.7 301 213.2 301C177.7 301 142.3 301 106.8 301C71.3 301 35.7 301 17.8 301L0 301Z"/></svg>