<svg id="visual" viewBox="0 0 960 300" width="960" height="300" xmlns="http://www.w3.org/2000/svg" xmlns:xlink="http://www.w3.org/1999/xlink" version="1.1"><rect x="0" y="0" width="960" height="300" fill="#93C5FD"></rect><path d="M0 221L17.8 212.2C35.7 203.3 71.3 185.7 106.8 187C142.3 188.3 177.7 208.7 213.2 218.2C248.7 227.7 284.3 226.3 320 223.3C355.7 220.3 391.3 215.7 426.8 213.3C462.3 211 497.7 211 533.2 207.8C568.7 204.7 604.3 198.3 640 200.3C675.7 202.3 711.3 212.7 746.8 213C782.3 213.3 817.7 203.7 853.2 204.2C888.7 204.7 924.3 215.3 942.2 220.7L960 226L960 0L942.2 0C924.3 0 888.7 0 853.2 0C817.7 0 782.3 0 746.8 0C711.3 0 675.7 0 640 0C604.3 0 568.7 0 533.2 0C497.7 0 462.3 0 426.8 0C391.3 0 355.7 0 320 0C284.3 0 248.7 0 213.2 0C177.7 0 142.3 0 106.8 0C71.3 0 35.7 0 17.8 0L0 0Z" fill="#93c5fd"></path><path d="M0 148L17.8 145.8C35.7 143.7 71.3 139.3 106.8 143.8C142.3 148.3 177.7 161.7 213.2 170.2C248.7 178.7 284.3 182.3 320 181.5C355.7 180.7 391.3 175.3 426.8 173.3C462.3 171.3 497.7 172.7 533.2 172.2C568.7 171.7 604.3 169.3 640 168.2C675.7 167 711.3 167 746.8 168.5C782.3 170 817.7 173 853.2 174.2C888.7 175.3 924.3 174.7 942.2 174.3L960 174L960 0L942.2 0C924.3 0 888.7 0 853.2 0C817.7 0 782.3 0 746.8 0C711.3 0 675.7 0 640 0C604.3 0 568.7 0 533.2 0C497.7 0 462.3 0 426.8 0C391.3 0 355.7 0 320 0C284.3 0 248.7 0 213.2 0C177.7 0 142.3 0 106.8 0C71.3 0 35.7 0 17.8 0L0 0Z" fill="#7ab5fd"></path><path d="M0 107L17.8 105.8C35.7 104.7 71.3 102.3 106.8 104.5C142.3 106.7 177.7 113.3 213.2 115C248.7 116.7 284.3 113.3 320 116.3C355.7 119.3 391.3 128.7 426.8 132.3C462.3 136 497.7 134 533.2 131.8C568.7 129.7 604.3 127.3 640 124.7C675.7 122 711.3 119 746.8 118C782.3 117 817.7 118 853.2 119.3C888.7 120.7 924.3 122.3 942.2 123.2L960 124L960 0L942.2 0C924.3 0 888.7 0 853.2 0C817.7 0 782.3 0 746.8 0C711.3 0 675.7 0 640 0C604.3 0 568.7 0 533.2 0C497.7 0 462.3 0 426.8 0C391.3 0 355.7 0 320 0C284.3 0 248.7 0 213.2 0C177.7 0 142.3 0 106.8 0C71.3 0 35.7 0 17.8 0L0 0Z" fill="#63a5fc"></path><path d="M0 90L17.8 86.3C35.7 82.7 71.3 75.3 106.8 70.2C142.3 65 177.7 62 213.2 67C248.7 72 284.3 85 320 91.7C355.7 98.3 391.3 98.7 426.8 95.3C462.3 92 497.7 85 533.2 85.7C568.7 86.3 604.3 94.7 640 97.7C675.7 100.7 711.3 98.3 746.8 95.2C782.3 92 817.7 88 853.2 83.2C888.7 78.3 924.3 72.7 942.2 69.8L960 67L960 0L942.2 0C924.3 0 888.7 0 853.2 0C817.7 0 782.3 0 746.8 0C711.3 0 675.7 0 640 0C604.3 0 568.7 0 533.2 0C497.7 0 462.3 0 426.8 0C391.3 0 355.7 0 320 0C284.3 0 248.7 0 213.2 0C177.7 0 142.3 0 106.8 0C71.3 0 35.7 0 17.8 0L0 0Z" fill="#4d94fa"></path><path d="M0 48L17.8 46.7C35.7 45.3 71.3 42.7 106.8 39C142.3 35.3 177.7 30.7 213.2 27.7C248.7 24.7 284.3 23.3 320 26.7C355.7 30 391.3 38 426.8 45.3C462.3 52.7 497.7 59.3 533.2 58.2C568.7 57 604.3 48 640 47.5C675.7 47 711.3 55 746.8 52.5C782.3 50 817.7 37 853.2 36.5C888.7 36 924.3 48 942.2 54L960 60L960 0L942.2 0C924.3 0 888.7 0 853.2 0C817.7 0 782.3 0 746.8 0C711.3 0 675.7 0 640 0C604.3 0 568.7 0 533.2 0C497.7 0 462.3 0 426.8 0C391.3 0 355.7 0 320 0C284.3 0 248.7 0 213.2 0C177.7 0 142.3 0 106.8 0C71.3 0 35.7 0 17.8 0L0 0Z" fill="#3b82f6"></path></svg>